<svg version="1.2" xmlns="http://www.w3.org/2000/svg" viewBox="0 0 1200 800" width="1200" height="800">
	<title>16326511_rm222batch3-kul-15</title>
	<defs>
		<radialGradient id="g1" cx="0" cy="0" r="1" gradientUnits="userSpaceOnUse" gradientTransform="matrix(672.378,-154.466,154.466,672.378,681.064,410.198)">
			<stop offset=".422" stop-color="#f2fafc"/>
			<stop offset="1" stop-color="#c1d7e6"/>
		</radialGradient>
		<clipPath clipPathUnits="userSpaceOnUse" id="cp1">
			<path d="m1200 0v800h-1200v-800z"/>
		</clipPath>
		<linearGradient id="g2" x2="1" gradientUnits="userSpaceOnUse" gradientTransform="matrix(-1586.237,659.254,-659.417,-1586.629,1628.871,764.028)">
			<stop offset="0" stop-color="#fcfa9f" stop-opacity="1"/>
			<stop offset="1" stop-color="#6f97c7" stop-opacity="0"/>
		</linearGradient>
		<linearGradient id="g3" x2="1" gradientUnits="userSpaceOnUse" gradientTransform="matrix(-719.097,1224.148,-1224.517,-719.313,2347.457,646.737)">
			<stop offset="0" stop-color="#fd7173" stop-opacity="1"/>
			<stop offset="1" stop-color="#89cde6" stop-opacity="0"/>
		</linearGradient>
		<linearGradient id="g4" x2="1" gradientUnits="userSpaceOnUse" gradientTransform="matrix(1135.754,-579.977,580.249,1136.286,628.766,350.984)">
			<stop offset="0" stop-color="#6eb5fa" stop-opacity="1"/>
			<stop offset="1" stop-color="#bae6e6" stop-opacity="0"/>
		</linearGradient>
		<linearGradient id="g5" x2="1" gradientUnits="userSpaceOnUse" gradientTransform="matrix(617.61,1442.626,-1443.292,617.895,1050.356,-538.132)">
			<stop offset="0" stop-color="#7da5fc" stop-opacity="1"/>
			<stop offset="1" stop-color="#bae6e6" stop-opacity="0"/>
		</linearGradient>
	</defs>
	<style>
		.s0 { fill: url(#g1) } 
		.s1 { fill: url(#g2) } 
		.s2 { fill: url(#g3) } 
		.s3 { fill: url(#g4) } 
		.s4 { fill: url(#g5) } 
	</style>
	<g id="Background">
		<path id="&lt;Path&gt;" class="s0" d="m0 800v-800h1200v800z"/>
	</g>
	<g id="Graphic Elements">
		<g id="&lt;Clip Group&gt;" clip-path="url(#cp1)">
			<g id="&lt;Group&gt;">
				<path id="&lt;Compound Path&gt;" fill-rule="evenodd" class="s1" d="m-82.6 546.5c-16.2-38.8-28.6-79.2-37-120.4-4.2-20.6-7.5-41.4-9.7-62.3-2.2-20.9-3.4-41.9-3.6-63q-0.1-15.8 0.6-31.6 0.6-15.7 2-31.5c1.8-21 4.7-41.9 8.6-62.6 7.8-41.4 19.4-82.2 35-121.5 7.8-19.7 16.5-39 26.2-57.8 9.6-18.9 20.1-37.3 31.6-55.2l4.3-6.6c1.5-2.3 2.9-4.5 4.4-6.7l4.5-6.5c1.5-2.2 3-4.4 4.6-6.5q9.2-13 19-25.6c13.2-16.7 27.1-32.8 41.9-48.2 29.4-30.7 61.9-58.8 96.9-83.3 35.1-24.5 72.6-45.7 111.9-63 78.5-34.7 164.3-54.3 251-56 86.6-1.9 173.9 13.8 255 46 40.5 16.1 79.6 36.1 116.2 60 36.6 23.9 71 51.3 102.2 82.1 15.6 15.4 30.4 31.5 44.4 48.4 3.5 4.2 7.1 8.4 10.4 12.7 3.4 4.4 6.8 8.6 10 13l4.9 6.6 2.5 3.4 2.3 3.3 4.7 6.8 2.4 3.3 2.3 3.5c24.4 36.4 45.3 75.2 62.1 115.6 16.7 40.5 29.6 82.7 38.1 125.7 8.5 43 12.6 86.9 12.4 130.6-0.6 87.7-19 174.9-53.4 255-34.4 80.1-84.9 153.1-147.3 213.2-31.2 30-65.4 56.8-101.7 80-36.4 23.2-75 42.8-115 58.4-40 15.6-81.4 27.3-123.5 34.8-21.1 3.7-42.3 6.4-63.6 8.1-21.2 1.7-42.6 2.3-63.9 1.9-21.3-0.4-42.5-1.9-63.6-4.4-21.1-2.5-42.1-6-62.8-10.4-41.5-9-81.9-22.1-120.8-38.7-38.9-16.7-76-37.3-110.9-60.9-17.4-11.9-34.2-24.6-50.4-38.1q-12.1-10.1-23.8-20.8-11.6-10.7-22.7-21.9c-14.8-15-28.9-30.6-42.2-47-13.2-16.3-25.6-33.3-37.3-50.8-23.3-35-43.1-72.3-59.2-111.1zm3.1-1.3c16.1 38.6 35.9 75.6 59.1 110.4 23.3 34.7 50 67.2 79.6 96.6 59.3 59.1 130.3 106.1 207.6 138 77.2 31.8 160.8 48.4 244.3 48.2 41.8-0.1 83.6-4.3 124.5-12.6 40.9-8.2 81.1-20.6 119.6-36.6 38.6-16.1 75.6-35.9 110.3-59.1 34.6-23.2 67-49.9 96.5-79.5 58.9-59.2 105.9-130.1 137.7-207.3 31.8-77.1 48.4-160.6 48.2-244-0.1-41.7-4.3-83.5-12.6-124.3-8.2-40.9-20.5-81-36.5-119.5-16.1-38.5-35.7-75.5-58.9-110.2-23.2-34.7-49.8-67.1-79.3-96.6-59-59-129.8-106.1-206.9-138-77.2-31.9-160.6-48.6-244.1-48.6-41.8 0-83.5 4.2-124.4 12.4-41 8.2-81.1 20.4-119.7 36.4-38.6 16-75.6 35.7-110.3 58.9-34.8 23.2-67.2 49.8-96.7 79.4-59.1 59.1-106.3 130-138.2 207.2-32 77.3-48.7 160.8-48.7 244.4 0 41.8 4.2 83.6 12.4 124.6 8.2 41 20.5 81.2 36.5 119.8z"/>
			</g>
			<g id="&lt;Group&gt;">
				<path id="&lt;Compound Path&gt;" fill-rule="evenodd" class="s2" d="m1122.7 1332c-28.5-16.7-55.5-36.2-80.3-58.1-12.4-11-24.3-22.5-35.7-34.6-11.3-12.1-22-24.7-32.1-37.9q-7.6-9.8-14.6-20.1-7.1-10.2-13.7-20.7c-8.8-14.1-17-28.6-24.4-43.5-14.7-29.7-26.8-60.9-35.7-93-8.8-32.1-14.8-65.1-17.4-98.5-0.2-4.1-0.6-8.3-0.8-12.5-0.1-4.2-0.4-8.3-0.5-12.5q-0.4-12.6-0.2-25.1c0.3-16.8 1.4-33.5 3.4-50.2 3.9-33.4 10.9-66.5 21.3-98.6 10.3-32.1 23.9-63.3 40.3-92.9 32.9-59.3 77.6-112.5 131.4-154.9 53.7-42.5 116.2-74.2 182.6-92.6 33.3-9.1 67.4-15.1 101.9-17.5 34.5-2.4 69.3-1.5 103.6 3.1 17.2 2.3 34.3 5.4 51.2 9.3q12.6 3 25.1 6.6c8.4 2.4 16.6 5.1 24.8 7.9 32.8 11.3 64.4 25.9 94.3 43.4 29.9 17.7 58 38.2 83.9 61.3 25.8 23.1 49.2 48.9 69.9 76.7 41.4 55.6 71.2 119.5 87.4 186.5 16.3 67 19.1 137 8.1 204.6-10.9 67.6-35.6 132.5-71.3 190.1-17.9 28.8-38.5 55.8-61.5 80.4-23 24.7-48.5 47-75.7 66.7-27.2 19.6-56.4 36.4-86.7 50.4-30.4 14-62.1 24.9-94.5 32.8-32.4 7.9-65.4 12.5-98.6 14.1-16.6 0.8-33.2 0.8-49.8-0.1q-12.4-0.6-24.8-1.8-12.4-1.2-24.7-3c-16.4-2.4-32.7-5.6-48.7-9.6-16.1-4-32-8.9-47.6-14.3-31.2-11-61.4-25.1-89.9-41.9zm1.5-2.5c28.4 16.7 58.4 30.6 89.4 41.4 31.1 10.8 63.3 18.5 95.8 23 65.2 9 132.1 5 195.8-11.6 63.6-16.6 124-45.8 176.4-85.4 26.2-19.9 50.4-42.3 72.3-66.9 21.8-24.6 41.1-51.3 57.8-79.7 16.6-28.3 30.4-58.3 41.2-89.3 10.8-31 18.6-63.1 23-95.7 9.1-65 5-131.9-11.6-195.4-16.5-63.6-45.6-123.8-85.3-176.2-19.8-26.2-42.2-50.4-66.7-72.1-24.6-21.8-51.3-41.2-79.6-57.8-28.3-16.6-58.2-30.5-89.1-41.3-31-10.9-63.1-18.7-95.6-23.2-65-9.1-131.8-5.2-195.4 11.2-63.6 16.5-123.9 45.5-176.3 85.1-26.3 19.7-50.6 42.1-72.4 66.7-21.8 24.5-41.3 51.2-57.9 79.5-16.7 28.3-30.6 58.3-41.5 89.3-10.8 31-18.6 63.1-23.2 95.7-9.1 65.1-5.2 132 11.3 195.6 16.5 63.7 45.5 124.1 85.1 176.7 19.8 26.2 42.2 50.5 66.8 72.4 24.6 21.9 51.3 41.3 79.7 58z"/>
			</g>
			<g id="&lt;Group&gt;">
				<path id="&lt;Compound Path&gt;" fill-rule="evenodd" class="s3" d="m1891.1 421.1c13.7 26.7 24.9 54.8 33.2 83.7 4.1 14.5 7.7 29.1 10.5 43.9 2.8 14.8 4.8 29.7 6.2 44.7q1 11.3 1.4 22.6 0.5 11.3 0.4 22.6c0 15.1-0.9 30.1-2.4 45.2-3.2 30-9 59.8-17.8 88.8-17.5 58.1-46.2 113-84.6 160.7-19.3 23.8-40.8 46-64.4 65.7-23.6 19.8-49.2 37.3-76.3 52.2-54.3 29.8-114.8 49.3-177.2 55.9-62.3 6.7-126.3 0.7-186.8-17.6-30.3-9.2-59.7-21.3-87.6-36.5-27.9-15-54.5-32.8-78.8-53.3-12.2-10.2-23.9-21-35-32.4q-8.4-8.5-16.3-17.5c-5.3-5.9-10.4-12.1-15.3-18.3-19.8-25-37.2-51.9-51.7-80.2-14.3-28.4-26-58.2-34.6-88.9-8.6-30.6-13.9-62.2-16.2-93.9-4.4-63.5 4.2-127.6 24.9-187.4 20.6-59.7 53.3-115 95.3-161.6 41.9-46.6 93.1-84.3 149-110.7 28-13.3 57.2-23.8 87.1-31.3 14.9-3.7 30-6.8 45.2-9 15.2-2.3 30.4-3.8 45.7-4.6 30.6-1.6 61.2-0.1 91.4 4.2 30.1 4.2 59.7 11.6 88.4 21.4 28.6 9.9 56.2 22.7 82.4 37.7 13.1 7.5 25.8 15.7 38 24.5q9.2 6.6 18.1 13.6 8.9 7 17.4 14.4c11.4 9.8 22.3 20.3 32.6 31.2 10.4 10.9 20.1 22.4 29.5 34.2 18.5 23.7 34.7 49.2 48.3 76zm-2.9 1.5c-13.6-26.6-29.8-51.8-48.3-75.3-18.5-23.4-39.3-45-62-64.3-45.5-38.6-98.6-68.2-155.4-86.5-56.8-18.3-117.1-25.4-176.5-20.6-29.7 2.4-59.2 7.7-87.9 15.9-28.6 8.2-56.5 19.2-83 32.8-26.5 13.6-51.7 29.7-75.1 48.2-23.4 18.4-44.9 39.2-64.2 61.9-38.6 45.4-68.1 98.4-86.3 155.1-18.3 56.7-25.4 116.9-20.6 176.2 2.4 29.7 7.7 59.1 15.8 87.7 8.2 28.6 19.2 56.4 32.7 82.9 13.6 26.5 29.6 51.7 48 75.1 18.4 23.4 39.1 44.9 61.7 64.2 45.3 38.7 98.2 68.3 154.9 86.7 56.6 18.4 116.8 25.6 176.2 21 29.7-2.3 59.2-7.6 87.8-15.7 28.7-8.1 56.6-19.1 83.1-32.6 26.6-13.5 51.8-29.6 75.2-48 23.5-18.4 45.1-39.2 64.4-61.9 38.8-45.3 68.4-98.3 86.8-155.1 18.5-56.7 25.7-117 21.1-176.5-2.4-29.8-7.6-59.3-15.8-88-8.1-28.7-19.1-56.6-32.6-83.2z"/>
			</g>
			<g id="&lt;Group&gt;">
				<path id="&lt;Compound Path&gt;" fill-rule="evenodd" class="s4" d="m865.5 1018.8c-17.4 7.5-35.2 14.1-53.2 19.9-18.1 5.8-36.4 10.7-54.9 14.7-18.6 4-37.3 7.2-56.1 9.4-18.9 2.3-37.8 3.6-56.8 4-76 1.7-152.4-11.4-223.9-38.3l-13.4-5.2-13.2-5.6-13.1-5.9c-4.3-2-8.7-4-13-6.1-17.2-8.4-34-17.7-50.4-27.8l-6.1-3.8c-2-1.3-4-2.5-6-3.9l-6-3.9q-3.1-2-6-4.1-11.9-8.1-23.4-16.8c-15.4-11.6-30.2-24-44.4-37.1-14.1-13.1-27.8-26.9-40.7-41.3-12.9-14.5-25.1-29.6-36.5-45.2-22.9-31.4-42.7-65.2-59.2-100.6-32.8-70.8-52.1-148.6-55.2-227.6-1.4-39.5 0.9-79.3 7.3-118.5 6.5-39.1 16.7-77.8 30.8-115.1 14.2-37.2 31.9-73.2 53.3-107.1 10.6-16.9 22.2-33.3 34.5-49.1 12.3-15.8 25.5-31 39.3-45.5 3.5-3.6 7-7.2 10.6-10.7 3.6-3.5 7.1-7.1 10.8-10.5 3.7-3.4 7.3-6.9 11.1-10.2 3.7-3.3 7.4-6.7 11.3-9.9 15.3-13 31.2-25.3 47.8-36.7 33-22.8 68.4-42.2 105.2-58.1 18.5-7.8 37.4-14.8 56.5-20.9 19.2-6 38.6-11 58.3-15.1 39.3-8.1 79.5-12.3 119.6-12.4 20 0 40.1 1 60 3q15 1.5 29.8 3.7c2.5 0.3 5 0.8 7.4 1.2l7.4 1.2c2.5 0.4 4.9 0.9 7.4 1.4l7.4 1.5c4.9 0.9 9.7 2.1 14.6 3.1 4.9 1.1 9.7 2.4 14.6 3.5 4.8 1.3 9.6 2.6 14.5 4 4.8 1.3 9.5 2.8 14.3 4.2 19.1 6 37.8 12.8 56.2 20.6 73.4 31 140.2 76.8 195.2 133.6 55.1 56.7 98.1 124.3 126.6 197 14.3 36.3 25 73.9 31.9 112.1 3.5 19.1 6 38.4 7.5 57.7 1.6 19.3 2.2 38.6 1.9 57.9-0.3 19.3-1.6 38.6-3.8 57.7-1 9.5-2.4 19.1-3.9 28.6-0.4 2.3-0.8 4.7-1.2 7.1l-1.3 7c-0.4 2.4-0.9 4.8-1.4 7.1l-1.4 7.1c-8 37.5-19.7 74.2-34.5 109.4-29.9 70.4-73.2 134.7-126.8 188.5-13.4 13.4-27.4 26.2-42.1 38.3-14.6 12.1-29.8 23.5-45.5 34.1-15.7 10.7-31.9 20.5-48.5 29.6-16.7 9.1-33.8 17.4-51.2 24.8zm-1.6-3.7c34.6-14.9 67.8-33.1 98.8-54.3 31-21.3 60-45.6 86.2-72.6 52.6-53.9 94.3-118.2 122.2-188.1 28-69.9 42-145.2 41-220.4-0.5-37.6-4.8-75.1-12.6-111.9-7.9-36.8-19.4-72.7-34.2-107.2-14.9-34.5-33.1-67.6-54.3-98.6-21.3-31-45.6-59.8-72.5-86-26.9-26.2-56.4-49.7-87.9-70.1-31.5-20.4-65-37.7-99.9-51.6-69.7-27.9-144.8-42-219.9-41-37.5 0.4-74.9 4.6-111.6 12.4-36.7 7.8-72.6 19.3-107.1 34-34.5 14.8-67.5 32.9-98.5 54-31 21.2-59.9 45.4-86.1 72.2-52.4 53.7-94.1 117.8-122.1 187.5-13.9 34.8-24.5 71-31.5 107.9-7 36.8-10.3 74.4-10 111.9 0.4 37.6 4.5 75.1 12.2 111.8 7.8 36.8 19.1 72.8 33.8 107.4 14.8 34.5 32.9 67.7 54 98.7 21.2 31.1 45.4 60 72.3 86.3 53.7 52.7 117.9 94.6 187.8 122.6 69.8 28 145.1 42.3 220.4 41.4 37.6-0.4 75.2-4.5 112-12.3 36.8-7.8 72.9-19.3 107.5-34z"/>
			</g>
		</g>
	</g>
</svg>